<svg width="130" height="130" viewBox="0 0 130 130" fill="none" xmlns="http://www.w3.org/2000/svg">
<circle cx="64.6445" cy="64.6445" r="64.6445" fill="#F8F7F7"/>
<path d="M41.9622 76.4267H87.8939V85.6257H41.9622V76.4267ZM51.7227 53.4294H58.0383V51.1297H51.1486V44.2305H69.5212V51.1297H62.6315V53.4294H78.2482C80.5448 53.4294 82.8414 55.7291 83.3007 58.0289L84.449 74.127H45.4071L46.6702 58.0289C46.6702 55.7291 48.9668 53.4294 51.7227 53.4294ZM67.2247 58.0289V62.6283H78.7076V58.0289H67.2247ZM51.1486 58.0289V60.3286H55.7417V58.0289H51.1486ZM58.0383 58.0289V60.3286H62.6315V58.0289H58.0383ZM51.1486 62.6283V64.9281H55.7417V62.6283H51.1486ZM58.0383 62.6283V64.9281H62.6315V62.6283H58.0383ZM51.1486 67.2278V69.5275H55.7417V67.2278H51.1486ZM58.0383 67.2278V69.5275H62.6315V67.2278H58.0383ZM53.4452 46.5302V48.8299H67.2247V46.5302H53.4452Z" fill="#6E6E6E"/>
</svg>
