<svg width="130" height="130" viewBox="0 0 130 130" fill="none" xmlns="http://www.w3.org/2000/svg">
<circle cx="64.6445" cy="64.6445" r="64.6445" fill="#F8F7F7"/>
<g clip-path="url(#clip0)">
<path d="M64.6445 52.6654C66.3553 52.6654 67.9959 53.345 69.2056 54.5546C70.4152 55.7643 71.0948 57.405 71.0948 59.1157C71.0948 60.8264 70.4152 62.4671 69.2056 63.6767C67.9959 64.8864 66.3553 65.566 64.6445 65.566C62.9338 65.566 61.2932 64.8864 60.0835 63.6767C58.8738 62.4671 58.1943 60.8264 58.1943 59.1157C58.1943 57.405 58.8738 55.7643 60.0835 54.5546C61.2932 53.345 62.9338 52.6654 64.6445 52.6654ZM51.744 57.2727C52.776 57.2727 53.7343 57.5492 54.5637 58.0468C54.2872 60.6822 55.0613 63.2991 56.6462 65.3448C55.7247 67.114 53.8818 68.3304 51.744 68.3304C50.2776 68.3304 48.8714 67.7479 47.8345 66.711C46.7977 65.6742 46.2152 64.2679 46.2152 62.8016C46.2152 61.3352 46.7977 59.9289 47.8345 58.8921C48.8714 57.8552 50.2776 57.2727 51.744 57.2727ZM77.5451 57.2727C79.0114 57.2727 80.4177 57.8552 81.4545 58.8921C82.4914 59.9289 83.0739 61.3352 83.0739 62.8016C83.0739 64.2679 82.4914 65.6742 81.4545 66.711C80.4177 67.7479 79.0114 68.3304 77.5451 68.3304C75.4073 68.3304 73.5643 67.114 72.6429 65.3448C74.2497 63.2704 74.9955 60.6567 74.7254 58.0468C75.5547 57.5492 76.513 57.2727 77.5451 57.2727ZM52.6654 76.1628C52.6654 72.348 58.0284 69.2518 64.6445 69.2518C71.2607 69.2518 76.6236 72.348 76.6236 76.1628V79.388H52.6654V76.1628ZM42.5293 79.388V76.6236C42.5293 74.0619 46.0124 71.9057 50.7304 71.2791C49.643 72.5323 48.9796 74.2646 48.9796 76.1628V79.388H42.5293ZM86.7598 79.388H80.3095V76.1628C80.3095 74.2646 79.646 72.5323 78.5587 71.2791C83.2766 71.9057 86.7598 74.0619 86.7598 76.6236V79.388Z" fill="#6E6E6E"/>
</g>
<defs>
<clipPath id="clip0">
<rect width="44.2305" height="44.2305" fill="white" transform="translate(42.5293 42.5293)"/>
</clipPath>
</defs>
</svg>
