<svg width="130" height="130" viewBox="0 0 130 130" fill="none" xmlns="http://www.w3.org/2000/svg">
<circle cx="64.6445" cy="64.6445" r="64.6445" fill="#F8F7F7"/>
<g clip-path="url(#clip0)">
<path d="M78.3247 71.8274C79.8474 71.8274 81.3078 71.2822 82.3845 70.3118C83.4613 69.3414 84.0662 68.0253 84.0662 66.653C84.0662 65.2806 83.4613 63.9645 82.3845 62.9941C81.3078 62.0237 79.8474 61.4786 78.3247 61.4786H75.454V60.6162C75.454 58.1002 74.345 55.6873 72.371 53.9083C70.397 52.1292 67.7196 51.1298 64.928 51.1298C60.1434 51.1298 56.067 54.0447 54.8039 58.029H53.4451C51.4148 58.029 49.4676 58.7558 48.032 60.0497C46.5963 61.3435 45.7898 63.0984 45.7898 64.9282C45.7898 66.7579 46.5963 68.5128 48.032 69.8066C49.4676 71.1005 51.4148 71.8274 53.4451 71.8274V63.2034H76.4109V71.8274H78.3247ZM79.0137 58.098C83.9705 58.4084 87.8938 62.0995 87.8938 66.653C87.8938 67.7855 87.6463 68.9069 87.1654 69.9532C86.6845 70.9995 85.9796 71.9502 85.0911 72.751C84.2025 73.5519 83.1476 74.1871 81.9866 74.6205C80.8257 75.0539 79.5813 75.277 78.3247 75.277H76.4109V82.1762H53.4451V75.277C50.3996 75.277 47.4789 74.1866 45.3254 72.2459C43.172 70.3051 41.9622 67.6728 41.9622 64.9282C41.9622 59.5985 46.4405 55.2003 52.2011 54.6484C53.4117 52.5484 55.2386 50.7882 57.4828 49.5595C59.7269 48.3308 62.3022 47.6807 64.928 47.6802C71.8943 47.6802 77.6931 52.1647 79.0137 58.098ZM57.2727 66.653V78.7266H72.5833V66.653H57.2727ZM59.1865 75.277H70.6694V77.0018H59.1865V75.277ZM70.6694 73.5522H59.1865V71.8274H70.6694V73.5522ZM59.1865 68.3778H70.6694V70.1026H59.1865V68.3778Z" fill="#6E6E6E"/>
</g>
<defs>
<clipPath id="clip0">
<rect width="45.9316" height="41.3952" fill="white" transform="translate(41.9622 44.2305)"/>
</clipPath>
</defs>
</svg>
