<svg width="20" height="20" viewBox="0 0 20 20" fill="none" xmlns="http://www.w3.org/2000/svg">
<path d="M9.58333 0C10.8418 0 12.088 0.24788 13.2507 0.729488C14.4134 1.2111 15.4699 1.917 16.3598 2.80689C17.2497 3.69679 17.9556 4.75325 18.4372 5.91595C18.9188 7.07865 19.1667 8.32483 19.1667 9.58333C19.1667 12.125 18.157 14.5625 16.3598 16.3598C14.5625 18.157 12.125 19.1667 9.58333 19.1667C8.32483 19.1667 7.07865 18.9188 5.91595 18.4372C4.75325 17.9556 3.69679 17.2497 2.80689 16.3598C1.00967 14.5625 0 12.125 0 9.58333C0 7.04168 1.00967 4.60412 2.80689 2.80689C4.60412 1.00967 7.04168 0 9.58333 0ZM9.58333 14.375L14.375 9.58333H11.5V5.75H7.66667V9.58333H4.79167L9.58333 14.375Z" fill="#00e396"/>
</svg>
