<svg width="48" height="48" viewBox="0 0 48 48" fill="none" xmlns="http://www.w3.org/2000/svg">
<path d="M24 0.666687C27.0642 0.666687 30.0984 1.27022 32.9293 2.44283C35.7602 3.61544 38.3325 5.33416 40.4992 7.50086C42.6659 9.66756 44.3846 12.2398 45.5572 15.0707C46.7298 17.9017 47.3334 20.9358 47.3334 24C47.3334 30.1884 44.875 36.1233 40.4992 40.4992C36.1233 44.875 30.1884 47.3334 24 47.3334C20.9358 47.3334 17.9017 46.7298 15.0707 45.5572C12.2398 44.3846 9.66756 42.6659 7.50086 40.4992C3.12501 36.1233 0.666687 30.1884 0.666687 24C0.666687 17.8116 3.12501 11.8767 7.50086 7.50086C11.8767 3.12501 17.8116 0.666687 24 0.666687ZM24 35.6667L35.6667 24H28.6667V14.6667H19.3334V24H12.3334L24 35.6667Z" fill="#FF0000"/>
</svg>
